<svg width="100%" height="100%" viewBox="0 0 341 105" version="1.1" xmlns="http://www.w3.org/2000/svg" xmlns:xlink="http://www.w3.org/1999/xlink" xml:space="preserve" fill-rule="evenodd" clip-rule="evenodd" stroke-linejoin="round" stroke-miterlimit="1.41421"><g><g><path d="M26.3,37.6c-3.5,0 -4.5,0.5 -4.5,3.2l0,22.3c0,1.1 0.4,8.1 1.5,9.3c1.4,1.5 5.3,2.4 9.3,2.4c9.4,0 16.4,-6.5 16.4,-17.3c0,-11.2 -9.2,-19.9 -22.7,-19.9m4.1,-34.7c-8.2,0 -8.6,1.1 -8.6,3.6l0,27c0,2 1.6,1.7 4.6,1.7c7.6,0 12.8,0.7 12.8,0.7c3.6,-2.7 7.7,-5.1 7.7,-14.9c0,-6.2 -5.2,-18.1 -16.5,-18.1m1.6,74.1c-5.2,0 -10.4,-1.2 -15.9,-1.2c-5.2,0 -8,0.5 -11.9,0.5c-1.2,0 -2.1,-0.1 -2.1,-1.4c0,-1.2 0.7,-1.5 3.5,-1.5c5.6,0 5.8,-0.2 5.8,-2.1l0,-57.2c0,-9.8 -2,-10.9 -5.5,-10.9c-5.6,0 -6.1,-0.1 -6.1,-1.6c0,-0.9 0.4,-1 2.5,-1c3.9,0 7.7,0.1 12.1,0.1c2.6,0 8.6,-0.7 19.8,-0.7c16.2,0 23.1,8.3 23.1,17.2c0,8.8 -5.3,13.2 -9.3,15.9c-2.4,1.6 -5.1,3 -5.1,3.4c0,0.2 2.4,0.9 4.9,2.1c5.8,3 13.2,7.2 13.2,18c-0.1,13.8 -11.7,20.4 -29,20.4" fill="#fff" fill-rule="nonzero"/><path d="M83.8,33.2c-8.2,0 -10.8,12.3 -10.8,13.8c0,0.5 0,0.6 1.3,0.6c5.6,0 11.5,-1.4 19.6,-2.7c1.2,-0.2 1.3,-0.4 1.3,-1.1c0,-2.6 -6.4,-10.6 -11.4,-10.6m16.7,12.9c-2.8,0.7 -13.6,3 -26,3.8c-1.7,0.1 -2.1,0.6 -2.1,3.1c0,14.9 11.6,18.9 19.8,18.9c7.1,0 11,-2.6 11.7,-2.6c0.5,0 0.9,0.6 0.9,0.9c0,0.5 -9.2,7.4 -18,7.4c-8.9,0 -22.1,-4.3 -22.1,-22.4c0,-15.2 10.3,-24.3 20.1,-24.3c5.6,0 12.5,3.6 16.4,8.1c1.8,2.2 3.6,4.8 3.6,5.6c0.1,0.5 -1.4,0.9 -4.3,1.5" fill="#fff" fill-rule="nonzero"/><path d="M140.1,43.2c-1.5,0 -2.8,-4.4 -8.2,-4.4c-6.3,0 -8.7,2.6 -8.7,7.1l0,22.3c0,5.3 0.3,5.3 8.3,5.3c2.8,0 2.9,0.3 2.9,1.3c0,1.2 -0.1,1.1 -2.9,1.1c-1.5,0 -8.8,-0.5 -12.2,-0.5c-3.7,0 -7.4,0.5 -8.9,0.5c-2.5,0 -2.7,0 -2.7,-1.1c0,-1.1 0.1,-1.3 2.7,-1.3c4.4,0 4.8,-0.1 4.8,-1.6l0,-29.6c0,-7.4 0.2,-7.6 -5.8,-7.6c-1.9,0 -1.9,0.1 -1.9,-1.1c0,-1.3 -0.1,-1.6 1.7,-1.6c3.7,0 5.7,0.2 7.9,0.2c1.7,0 3.8,-0.5 5.5,-0.5c0.4,0 0.9,0.3 0.9,1.2c0,0.5 -0.2,2.9 -0.2,3.2c0,1 0.1,1.7 0.5,1.7c1.6,0 6.7,-5.6 11.8,-5.6c1.9,0 6.9,2.4 6.9,5.2c0,1.1 -1.8,5.8 -2.4,5.8" fill="#fff" fill-rule="nonzero"/><path d="M191.2,76.3c-1.3,0 -2.7,-0.1 -3.7,-0.1c-1.3,0 -4.5,0.1 -6.1,0.1c-1.9,0 -2.9,-2.7 -7.5,-7.9c-4.5,-5.2 -9.1,-12 -9.7,-12c-0.4,0 -1.9,1.1 -3.8,2.3c-1.7,1.1 -3.2,1.8 -3.2,2.8l0,6.8c0,5.1 -0.2,5.1 6.5,5.1c2.5,0 2.9,0.5 2.9,1.4c0,1.1 -0.5,1.1 -2.9,1.1c-1.6,0 -6.6,-0.2 -10.1,-0.2c-3.7,0 -7.7,0.2 -9.2,0.2c-2.5,0 -3.1,-0.1 -3.1,-1.1c0,-0.9 0.5,-1.4 3.1,-1.4c3.7,0 4.6,0 4.6,-1.6c0,-3.1 0.3,-35.2 0.3,-58c0,-7.7 -0.9,-8.7 -3.8,-8.7c-4.4,0 -4.9,-0.3 -4.9,-1.1c0,-1.1 0.2,-1.5 1.4,-1.5c7.8,0 14.2,-2.4 15.1,-2.4c0.5,0 0.8,0.3 0.8,1c0,1.4 -0.2,5.9 -0.2,9.4c0,16.4 -0.6,28.6 -0.6,46.2c0,0.4 0.1,0.8 0.4,0.8c2.7,0 14,-9.9 17.4,-13.2c4.2,-4 5.2,-5.8 5.2,-8.1c0,-1.7 -0.3,-1.9 -5.1,-1.9c-1.6,0 -2.2,-0.2 -2.2,-1.2c0,-0.9 0.5,-1.1 1.9,-1.1c1.1,0 3.1,0.3 4.4,0.3c1.4,0 7.7,-0.3 9,-0.3c0.9,0 1.3,0.1 1.3,0.4c0,1 -3.7,5.6 -7,8.9c-5.4,5.3 -12.1,10.1 -12.1,10.8c0,1 1.9,3 9.5,12.1c3.7,4.4 7.1,9.7 10.8,9.7c2.6,0 3.5,0.5 3.5,1.4c0.3,0.8 -0.5,1 -2.9,1" fill="#fff" fill-rule="nonzero"/><path d="M210,33.2c-8.2,0 -10.8,12.3 -10.8,13.8c0,0.5 0,0.6 1.3,0.6c5.6,0 11.5,-1.4 19.6,-2.7c1.2,-0.2 1.3,-0.4 1.3,-1.1c-0.1,-2.6 -6.5,-10.6 -11.4,-10.6m16.6,12.9c-2.8,0.7 -13.6,3 -26,3.8c-1.7,0.1 -2.1,0.6 -2.1,3.1c0,14.9 11.6,18.9 19.8,18.9c7.1,0 11,-2.6 11.7,-2.6c0.5,0 0.9,0.6 0.9,0.9c0,0.5 -9.2,7.4 -18,7.4c-8.9,0 -22.1,-4.3 -22.1,-22.4c0,-15.2 10.3,-24.3 20.1,-24.3c5.6,0 12.5,3.6 16.4,8.1c1.8,2.2 3.6,4.8 3.6,5.6c0.1,0.5 -1.4,0.9 -4.3,1.5" fill="#fff" fill-rule="nonzero"/><path d="M250.4,75.9c-1.6,0 -4,-0.2 -6,-0.2c-3.7,0 -9.4,0.2 -10.9,0.2c-2.5,0 -2.7,-0.2 -2.7,-1.1c0,-0.8 0.1,-1.4 2.7,-1.4c4.4,0 6.3,0.1 6.3,-1.8l0,-59.6c0,-6.8 -0.6,-6.8 -5.5,-6.8c-1.9,0 -3,-0.2 -3,-1.4c0,-1.3 0.9,-1.2 2.7,-1.3c8.4,-0.5 12.5,-2.4 13.2,-2.4c0.5,0 1.1,0.5 1.1,1.7c0,1.3 -0.5,5.2 -0.5,8.4c0,41.2 -0.5,49.8 -0.5,52.9c0,9 0.8,10.2 2.7,10.2c5.4,0 5.2,0.6 5.2,1.5c-0.1,1.1 -0.9,1.1 -4.8,1.1" fill="#fff" fill-rule="nonzero"/><path d="M272.3,33.2c-8.2,0 -10.8,12.3 -10.8,13.8c0,0.5 0,0.6 1.3,0.6c5.6,0 11.5,-1.4 19.6,-2.7c1.2,-0.2 1.3,-0.4 1.3,-1.1c0,-2.6 -6.4,-10.6 -11.4,-10.6m16.7,12.9c-2.8,0.7 -13.6,3 -26,3.8c-1.7,0.1 -2.1,0.6 -2.1,3.1c0,14.9 11.6,18.9 19.8,18.9c7.1,0 11,-2.6 11.7,-2.6c0.5,0 0.9,0.6 0.9,0.9c0,0.5 -9.2,7.4 -18,7.4c-8.9,0 -22.1,-4.3 -22.1,-22.4c0,-15.2 10.3,-24.3 20.1,-24.3c5.6,0 12.5,3.6 16.4,8.1c1.8,2.2 3.6,4.8 3.6,5.6c0.1,0.5 -1.4,0.9 -4.3,1.5" fill="#fff" fill-rule="nonzero"/><path d="M338,34.6c-2.4,0 -7.1,13 -15.7,33.7c-6.8,16.5 -11.7,25.3 -15.1,32.4c-1.2,2.4 -2.5,2.5 -4.9,2.8c-3.2,0.4 -4,1.3 -6.4,1.3c-1.8,0 -2.9,-0.5 -2.9,-1.1c0,-0.6 5.1,-1.3 8.8,-6c3.9,-4.9 13.2,-17.6 13.2,-20.9c0,-1.2 -8.7,-21.2 -14.6,-35.3c-2.7,-6.5 -3.5,-7 -5.4,-7c-2.2,0 -2.3,-0.1 -2.3,-1.1c0,-1 0.3,-1.5 2.3,-1.5c3,0 3.8,0.2 6.4,0.2c3,0 6.8,-0.3 10.3,-0.3c2.3,0 2.7,0.4 2.7,1.6c0,1 -0.4,1.1 -2.7,1.1c-2.6,0 -3.2,0.6 -3.2,3.1c0,3.1 2.8,6.9 9.3,23.6c0.9,2.3 2.2,4.1 2.6,4.1c0.8,0 1.4,-1.5 3.1,-6.6c2.6,-7.8 6.5,-19 6.5,-20.5c0,-3.2 0,-3.9 -3.7,-3.9c-3.4,0 -3.8,0 -3.8,-1.1c0,-1.4 0.3,-1.4 2.3,-1.4c2.9,0 4.9,0.2 7.8,0.2c1.6,0 4.5,-0.4 6.1,-0.4c1.7,0 2.3,0.1 2.3,1.3c-0.2,1.1 -1.7,1.7 -3,1.7" fill="#fff" fill-rule="nonzero"/><path d="M14.5,103.3c-3.5,0 -5.3,-2 -5.3,-5.3l0,-9.4l2.5,0l0,9.6c0,1.8 0.8,3 2.8,3c2,0 2.8,-1.2 2.8,-3l0,-9.6l2.5,0l0,9.4c0,3.3 -1.7,5.3 -5.3,5.3" fill="#fff" fill-rule="nonzero"/><path d="M32,103.1l-6.1,-9.8l0,9.8l-2.5,0l0,-14.3l2.4,-0.2l5.9,9.5l0.1,0l0,-9.5l2.5,0l0,14.5l-2.3,0Z" fill="#fff" fill-rule="nonzero"/><rect x="37.8" y="88.6" width="2.5" height="14.5" fill="#fff"/><path d="M50.6,103.1l-2.8,0l-5,-14.5l2.7,0l2.8,8.1c0,0 0.3,0.8 1,3.3l0.1,0c0.7,-2.5 1,-3.3 1,-3.3l2.8,-8.1l2.5,0l-5.1,14.5Z" fill="#fff" fill-rule="nonzero"/><path d="M66.8,103.1l-8.8,0l0,-14.5l8.6,0l0,2.1l-6.1,0l0,4l5.5,0l0,2.1l-5.5,0l0,4.1l6.5,0l-0.2,2.2Z" fill="#fff" fill-rule="nonzero"/><path d="M74.9,90.8l-2.1,0l0,4.4l2.1,0c1.5,0 2.2,-0.9 2.2,-2.3c0.1,-1.3 -0.5,-2.1 -2.2,-2.1m3,12.3l-2,-4.1c-0.4,-0.9 -0.9,-1.7 -1.9,-1.7l-1.2,0l0,5.8l-2.5,0l0,-14.5l4.6,0c3.2,0 4.8,1.8 4.8,4.3c0,1.7 -0.8,3.2 -2.7,3.9c0.5,0.3 0.7,0.7 0.9,1l2.8,5.2l-2.8,0l0,0.1Z" fill="#fff" fill-rule="nonzero"/><path d="M87.2,103.3c-2,0 -3.6,-0.8 -4.8,-1.6l1.1,-1.9c1.2,0.8 2.6,1.3 3.7,1.3c1.7,0 2.5,-0.9 2.5,-2c0,-2.7 -6.4,-1.8 -6.4,-6.7c0,-2.6 2.1,-4.1 4.7,-4.1c1.5,0 3,0.5 4.2,1.3l-0.9,1.8c-1.1,-0.5 -2,-1 -3.3,-1c-1.4,0 -2.1,0.8 -2.1,1.9c0,3.3 6.4,1.8 6.4,6.7c-0.1,2.5 -2.4,4.3 -5.1,4.3" fill="#fff" fill-rule="nonzero"/><rect x="95.2" y="88.6" width="2.5" height="14.5" fill="#fff"/><path d="M110.6,90.7l-3.6,0l0,12.4l-2.5,0l0,-12.3l-3.9,0l0,-2.2l10.2,0l-0.2,2.1Z" fill="#fff" fill-rule="nonzero"/><path d="M119.5,96.9l0,6.2l-2.5,0l0,-6.2l-4.6,-8.3l2.8,0l1.9,4.1c0,0 0.3,0.5 1,2.1l0.1,0c0.7,-1.6 1,-2.1 1,-2.1l2,-4.1l2.8,0l-4.5,8.3Z" fill="#fff" fill-rule="nonzero"/><path d="M138.9,90.5c-2.5,0 -3.7,2.2 -3.7,5.3c0,3.2 1.2,5.4 3.7,5.4c2.5,0 3.7,-2.2 3.7,-5.3c0,-3.2 -1.2,-5.4 -3.7,-5.4m0,12.8c-4.4,0 -6.3,-3.3 -6.3,-7.5c0,-4.3 1.9,-7.5 6.3,-7.5c4.3,0 6.3,3.1 6.3,7.5c0,4.2 -1.9,7.5 -6.3,7.5" fill="#fff" fill-rule="nonzero"/><path d="M151,90.7l0,4l5.3,0l0,2.1l-5.3,0l0,6.3l-2.5,0l0,-14.5l8.4,0l0,2.1l-5.9,0Z" fill="#fff" fill-rule="nonzero"/><path d="M172.7,103.3c-4.5,0 -6.4,-3 -6.4,-7.5c0,-4.3 2.1,-7.5 6.5,-7.5c1.8,0 3.3,0.6 4.8,1.9l-1.3,1.7c-1.1,-0.9 -2.1,-1.4 -3.5,-1.4c-2.6,0 -3.9,1.9 -3.9,5.3c0,3.4 1.3,5.3 3.9,5.3c1.3,0 2.6,-0.6 3.8,-1.7l1.3,1.6c-1.4,1.5 -3.2,2.3 -5.2,2.3" fill="#fff" fill-rule="nonzero"/><path d="M186.9,94.6c0,0 -0.2,-0.5 -1.2,-3.5c-1,3 -1.1,3.5 -1.1,3.5l-1.1,3.2l4.6,0l-1.2,-3.2Zm2.9,8.5l-1.2,-3.5l-5.8,0l-1.2,3.5l-2.3,0l5.1,-14.2l2.9,-0.2l5.1,14.5l-2.6,0l0,-0.1Z" fill="#fff" fill-rule="nonzero"/><path d="M203,103.1l-8.5,0l0,-14.5l2.5,0l0,12.3l6.2,0l-0.2,2.2Z" fill="#fff" fill-rule="nonzero"/><rect x="205.6" y="88.6" width="2.5" height="14.5" fill="#fff"/><path d="M213.9,90.7l0,4l5.4,0l0,2.1l-5.4,0l0,6.3l-2.5,0l0,-14.5l8.5,0l0,2.1l-6,0Z" fill="#fff" fill-rule="nonzero"/><path d="M227.8,90.5c-2.5,0 -3.7,2.2 -3.7,5.3c0,3.2 1.2,5.4 3.7,5.4c2.5,0 3.7,-2.2 3.7,-5.3c0,-3.2 -1.2,-5.4 -3.7,-5.4m0,12.8c-4.4,0 -6.3,-3.3 -6.3,-7.5c0,-4.3 1.9,-7.5 6.3,-7.5c4.3,0 6.3,3.1 6.3,7.5c0,4.2 -1.9,7.5 -6.3,7.5" fill="#fff" fill-rule="nonzero"/><path d="M240.8,90.8l-2.1,0l0,4.4l2.1,0c1.5,0 2.2,-0.9 2.2,-2.3c0.1,-1.3 -0.5,-2.1 -2.2,-2.1m3,12.3l-2,-4.1c-0.4,-0.9 -1,-1.7 -1.9,-1.7l-1.2,0l0,5.8l-2.5,0l0,-14.5l4.6,0c3.2,0 4.8,1.8 4.8,4.3c0,1.7 -0.8,3.2 -2.7,3.9c0.5,0.3 0.7,0.7 0.9,1l2.8,5.2l-2.8,0l0,0.1Z" fill="#fff" fill-rule="nonzero"/><path d="M257.2,103.1l-6.1,-9.8l0,9.8l-2.6,0l0,-14.3l2.5,-0.2l5.9,9.5l0,-9.5l2.5,0l0,14.5l-2.2,0Z" fill="#fff" fill-rule="nonzero"/><rect x="262.6" y="88.6" width="2.5" height="14.5" fill="#fff"/><path d="M274.8,94.6c0,0 -0.2,-0.5 -1.2,-3.5c-1,3 -1.1,3.5 -1.1,3.5l-1.1,3.2l4.6,0l-1.2,-3.2Zm2.9,8.5l-1.2,-3.5l-5.8,0l-1.2,3.5l-2.3,0l5.1,-14.2l2.9,-0.2l5.1,14.5l-2.6,0l0,-0.1Z" fill="#fff" fill-rule="nonzero"/></g></g></svg>