<?xml version="1.0" encoding="utf-8"?>
<!-- Generator: Adobe Illustrator 21.1.0, SVG Export Plug-In . SVG Version: 6.00 Build 0)  -->
<svg version="1.1" xmlns="http://www.w3.org/2000/svg" xmlns:xlink="http://www.w3.org/1999/xlink" x="0px" y="0px"
	 viewBox="0 0 581.3 279.1" style="enable-background:new 0 0 581.3 279.1;" xml:space="preserve">
<style type="text/css">
	.st0{fill:#22348D;}
	.st1{fill:#28DBA6;}
	.st2{fill:#595959;}
	.st3{display:none;}
	.st4{display:inline;}
	.st5{fill:none;stroke:#FF3A9D;stroke-width:0.5;stroke-miterlimit:10;stroke-dasharray:6,6;}
	.st6{fill:none;stroke:#FF3A9D;stroke-width:0.5;stroke-miterlimit:10;stroke-dasharray:4,4;}
</style>
<g id="logo">
	<g>
		<polygon class="st0" points="163.1,54.2 163.1,102.5 135.7,121.7 163.1,141 163.1,224.8 217.1,224.8 217.1,54.2 		"/>
		<polygon class="st1" points="108.2,102.5 108.2,54.2 54.2,54.2 54.2,224.8 108.2,224.8 108.2,141 135.7,121.7 		"/>
		<g>
			<g>
				<g>
					<path class="st2" d="M260.1,123.5c-2.3,1.6-5.1,2.4-8.4,2.4c-1.1,0-2.3-0.1-3.7-0.3l-1.2,8.9c-0.1,0.6,0.2,1,0.9,1.1l3.3,0.5
						l0.1,1.6h-12.7l0.1-1.6l2.5-0.5c0.7-0.1,1.1-0.5,1.2-1.1l3.1-22.4c0.1-0.6-0.2-1-0.9-1.1l-2.4-0.5l-0.1-1.6h11.3
						c3.1,0,5.7,0.7,7.5,2.2c1.9,1.5,2.8,3.4,2.8,5.8C263.7,119.6,262.5,121.9,260.1,123.5z M257.2,112.3c-1.2-1.1-2.8-1.7-4.7-1.7
						h-2.3l-1.8,13.2c1.2,0.3,2.3,0.5,3.3,0.5c2.2,0,4-0.7,5.4-2c1.4-1.3,2-3.2,2-5.5C259,114.9,258.4,113.4,257.2,112.3z"/>
					<path class="st2" d="M281.9,137c-1.2,1-2.3,1.5-3.2,1.5c-0.6,0-1.3-0.2-2.1-0.5c-0.8-0.3-1.3-0.7-1.3-1c0-0.7,0.8-3.5,2.4-8.6
						c1.2-3.9,1.8-6.1,1.8-6.8c0-0.5-0.2-0.9-0.6-1.4c-0.4-0.4-0.9-0.6-1.5-0.6c-1.3,0-3.9,4-7.7,11.9l-1.2,6.5l-3.8-0.2l1.7-6.8
						l3.9-19.7c0.1-0.6,0-0.9-0.3-1.1l-2.9-1.3l0.2-1.2l7.7-2.2l-2.6,10.8l-3,12.9h0.4c2.9-6.2,5-10,6.4-11.3
						c1.1-1.1,2.3-1.7,3.6-1.7c0.8,0,1.5,0.3,2.2,0.9c0.7,0.6,1,1.4,1,2.2c0,1.5-0.6,4.3-1.9,8.5c-1,3.5-1.7,6-2.2,7.4l1.3,0.4
						l3.7-2.8l0.8,0.8C284.1,134.9,283.2,136,281.9,137z"/>
					<path class="st2" d="M302.3,134.3c-2,2.8-4.4,4.1-7.2,4.1c-2.3,0-4.1-0.8-5.2-2.5c-1.2-1.6-1.8-3.8-1.8-6.6
						c0-3.2,1-6.2,3.1-8.9c2-2.8,4.4-4.1,7.2-4.1c2.3,0,4.1,0.8,5.2,2.5c1.2,1.6,1.8,3.8,1.8,6.6
						C305.4,128.5,304.4,131.5,302.3,134.3z M300.9,119.5c-0.6-1.1-1.4-1.7-2.5-1.7c-1,0-1.9,0.5-2.8,1.6c-0.9,1.1-1.6,2.2-2.1,3.3
						c-0.5,1.1-0.9,2.2-1.2,3.2c-0.4,1.6-0.6,3.2-0.6,4.8c0,1.6,0.3,3.1,0.9,4.3c0.6,1.3,1.5,1.9,2.6,1.9c1,0,2-0.6,2.9-1.7
						c0.9-1.1,1.6-2.2,2.1-3.4c0.5-1.2,0.8-2.3,1.1-3.4c0.4-1.8,0.6-3.4,0.6-4.9C301.8,122,301.5,120.7,300.9,119.5z"/>
					<path class="st2" d="M311.9,130.7c0,1.5,0.4,2.7,1.2,3.6c0.8,0.9,1.7,1.3,2.9,1.3c1.1,0,2.9-0.9,5.5-2.7l0.6,0.8
						c-1.4,1.6-2.6,2.8-3.7,3.5c-1.1,0.8-2.4,1.1-3.8,1.1c-1.8,0-3.3-0.7-4.5-2.1c-1.2-1.4-1.8-3.1-1.8-5.1c0-3.7,1.1-7.1,3.3-10.2
						c2.2-3.1,4.7-4.7,7.5-4.7c1.5,0,2.7,0.4,3.6,1.2c0.9,0.8,1.4,1.9,1.4,3.1c0,1.4-0.6,2.5-1.9,3.4c-1.3,0.9-4,2.4-8.1,4.5
						l-2.1,1.1V130.7z M312.1,128.2c3.5-1.8,5.9-3.3,7-4.3c1.1-1,1.7-2.2,1.7-3.4c0-0.5-0.5-1-1.4-1.4c-0.9-0.4-1.7-0.6-2.3-0.6
						c-0.7,0-1.2,0.2-1.6,0.6c-0.6,0.6-1.2,1.7-1.9,3.4C312.9,124.1,312.4,126.1,312.1,128.2L312.1,128.2z"/>
					<path class="st2" d="M342.3,129.9c-0.8,2.2-1.9,3.9-3.3,5.4c-2.2,2.2-4.5,3.3-7,3.3c-1.1,0-2.4-0.4-3.9-1.2
						c-1.5-0.8-2.2-1.4-2.1-1.7l4.7-24.4c0.1-0.6,0-0.9-0.3-1.1l-2.9-1.3l0.2-1.2l7.7-2.2l-2.5,10.8l-2.4,10h0.4
						c1.9-3.6,3.5-6.2,4.7-7.7c1.2-1.5,2.5-2.3,3.8-2.3c1.2,0,2.2,0.6,3,1.9c0.8,1.3,1.2,2.9,1.2,4.7
						C343.5,125.4,343.1,127.7,342.3,129.9z M339.3,120.7c-0.4-0.8-0.9-1.2-1.6-1.2c-0.8,0-1.7,0.7-2.7,2c-1,1.3-2.6,3.9-4.8,7.8
						l-1,4.5c0.9,0.8,1.8,1.5,2.8,2.1c1,0.6,1.9,0.9,2.6,0.9c0.4,0,0.9-0.3,1.4-0.8c1-1,1.8-2.7,2.6-5.2c0.8-2.5,1.2-4.8,1.2-6.9
						C339.8,122.6,339.7,121.5,339.3,120.7z"/>
					<path class="st2" d="M349.9,130.7c0,1.5,0.4,2.7,1.2,3.6c0.8,0.9,1.7,1.3,2.9,1.3c1.1,0,2.9-0.9,5.5-2.7l0.6,0.8
						c-1.4,1.6-2.6,2.8-3.7,3.5c-1.1,0.8-2.4,1.1-3.8,1.1c-1.8,0-3.3-0.7-4.5-2.1c-1.2-1.4-1.8-3.1-1.8-5.1c0-3.7,1.1-7.1,3.3-10.2
						c2.2-3.1,4.7-4.7,7.5-4.7c1.5,0,2.7,0.4,3.6,1.2c0.9,0.8,1.4,1.9,1.4,3.1c0,1.4-0.6,2.5-1.9,3.4c-1.3,0.9-4,2.4-8.1,4.5
						l-2.1,1.1V130.7z M350.1,128.2c3.5-1.8,5.9-3.3,7-4.3c1.1-1,1.7-2.2,1.7-3.4c0-0.5-0.5-1-1.4-1.4c-0.9-0.4-1.7-0.6-2.3-0.6
						c-0.7,0-1.2,0.2-1.6,0.6c-0.6,0.6-1.2,1.7-1.9,3.4C350.9,124.1,350.4,126.1,350.1,128.2L350.1,128.2z"/>
					<path class="st2" d="M387,137.7l0.1-1.6l2.4-0.4c0.7-0.1,1-0.7,0.9-1.6l-1-6.8h-8.5l-1.5,3.9c-0.6,1.4-0.8,2.5-0.7,3.1
						c0.1,0.7,0.4,1.1,1.1,1.2l2.1,0.5l0.1,1.6h-10.3l0.1-1.6l1.7-0.6c0.7-0.2,1.2-0.5,1.6-0.9c0.4-0.4,0.8-1.1,1.2-2.1l9.6-21.7
						v-1.5l4.7-1.2l4.5,25.9c0.1,0.5,0.2,0.8,0.4,1c0.2,0.2,0.6,0.4,1.1,0.5l2.4,0.5l0.1,1.6H387z M387.2,112.7H387l-5.3,12.7h7.4
						L387.2,112.7z"/>
					<path class="st2" d="M406.5,137.5c-0.6,0.6-1.3,0.9-2.2,0.9c-0.9,0-1.6-0.3-2.2-0.9c-0.6-0.6-0.9-1.3-0.9-2.2
						c0-0.8,0.3-1.5,0.9-2.1c0.6-0.6,1.3-0.9,2.2-0.9c0.9,0,1.6,0.3,2.2,0.9c0.6,0.6,0.9,1.3,0.9,2.1
						C407.4,136.2,407.1,136.9,406.5,137.5z"/>
				</g>
			</g>
			<g>
				<path d="M257.8,181.2v-11.8h-10v11.8h-7.2v-28.9h7.2v10.8h10v-10.8h7.2v28.9H257.8z"/>
				<path d="M287.6,172.5h-12.3c0.3,3.2,2.3,4.5,5,4.5c2.3,0,4.5-0.8,6.7-2.1l0.6,4.4c-2.2,1.4-4.9,2.3-8.2,2.3
					c-6.1,0-10.5-3.3-10.5-10.6c0-6.7,4.1-10.7,9.7-10.7c6.3,0,9.1,4.7,9.1,10.6C287.8,171.5,287.7,172.2,287.6,172.5z M278.5,164.4
					c-1.8,0-3,1.5-3.2,4.7h6.4C281.5,166,280.4,164.4,278.5,164.4z"/>
				<path d="M302.9,181.2l-0.4-2.6c-1.7,1.8-3.6,3-6.4,3c-3.3,0-5.6-2-5.6-5.7c0-4.8,3.7-7.1,11.7-7.8v-0.4c0-1.8-1-2.6-3.1-2.6
					c-2.3,0-4.4,0.6-6.6,1.5l-0.8-4.8c2.3-1,5-1.6,8.3-1.6c5.6,0,8.4,1.9,8.4,7.1v13.7H302.9z M302.2,171.2
					c-4.3,0.7-5.5,2.1-5.5,3.9c0,1.3,0.8,2,2,2c1.2,0,2.4-0.5,3.5-1.5V171.2z"/>
				<path d="M319.3,169.8v11.4H313v-20.5h5.5l0.7,4.1c1.3-2.3,3-4.3,6-4.5l1,6.4C323.1,166.9,320.8,168.1,319.3,169.8z"/>
				<path d="M336.6,181.5c-3.3,0-6.3-0.9-8.4-2l0.8-4.8c2.4,1.5,5.4,2.4,7.7,2.4c1.8,0,2.6-0.6,2.6-1.5c0-1-0.6-1.5-3.5-2.2
					c-5.1-1.3-7.3-2.7-7.3-6.6c0-3.8,2.8-6.4,7.9-6.4c2.8,0,5.4,0.5,7.6,1.5l-0.8,4.8c-2.2-1.2-4.8-1.9-6.7-1.9
					c-1.5,0-2.2,0.5-2.2,1.3c0,0.8,0.6,1.3,3.5,2.1c5.4,1.5,7.4,2.8,7.4,6.6C345,179.2,342.1,181.5,336.6,181.5z"/>
				<path d="M357.3,181.5c-4.4,0-7.4-1.6-7.4-6.8v-8.8h-2.7v-5.1h2.7v-6.1l6.3-1v7.1h3.9l0.8,5.1h-4.7v7.8c0,1.7,0.8,2.4,2.5,2.4
					c0.5,0,1-0.1,1.5-0.2l0.8,5.2C359.9,181.4,359,181.5,357.3,181.5z"/>
				<path d="M399.2,181.2L398,162l-5.5,19.2h-6.7l-5.5-19.2l-1.3,19.2h-6.2l2.1-28.9h9.2l5.6,19.9l5.6-19.9h9l2.1,28.9H399.2z"/>
				<path d="M423.3,181.2l-0.5-2.8c-1.9,1.8-3.8,3.2-6.4,3.2c-3.8,0-5.8-2.3-5.8-6.3v-14.6h6.3v12.8c0,1.5,0.6,2.5,2.1,2.5
					c1.2,0,2.3-0.7,3.5-1.8v-13.5h6.3v20.5H423.3z"/>
				<path d="M441.2,181.5c-3.3,0-6.3-0.9-8.4-2l0.8-4.8c2.4,1.5,5.4,2.4,7.7,2.4c1.8,0,2.6-0.6,2.6-1.5c0-1-0.6-1.5-3.5-2.2
					c-5.1-1.3-7.3-2.7-7.3-6.6c0-3.8,2.8-6.4,7.9-6.4c2.8,0,5.4,0.5,7.6,1.5l-0.8,4.8c-2.2-1.2-4.8-1.9-6.7-1.9
					c-1.5,0-2.2,0.5-2.2,1.3c0,0.8,0.6,1.3,3.5,2.1c5.4,1.5,7.4,2.8,7.4,6.6C449.6,179.2,446.6,181.5,441.2,181.5z"/>
				<path d="M470.9,172.5h-12.3c0.3,3.2,2.3,4.5,5,4.5c2.3,0,4.5-0.8,6.7-2.1l0.6,4.4c-2.2,1.4-4.9,2.3-8.2,2.3
					c-6.1,0-10.5-3.3-10.5-10.6c0-6.7,4.1-10.7,9.7-10.7c6.3,0,9.1,4.7,9.1,10.6C471,171.5,470.9,172.2,470.9,172.5z M461.7,164.4
					c-1.8,0-3,1.5-3.2,4.7h6.4C464.7,166,463.7,164.4,461.7,164.4z"/>
				<path d="M487.2,181.2l-0.5-2.8c-1.9,1.8-3.8,3.2-6.4,3.2c-3.8,0-5.8-2.3-5.8-6.3v-14.6h6.3v12.8c0,1.5,0.6,2.5,2.1,2.5
					c1.2,0,2.3-0.7,3.5-1.8v-13.5h6.3v20.5H487.2z"/>
				<path d="M520.8,181.2v-12.8c0-1.5-0.5-2.5-2-2.5c-1.1,0-2.2,0.7-3.3,1.8v13.5h-6.3v-12.8c0-1.5-0.5-2.5-2-2.5
					c-1.2,0-2.2,0.7-3.3,1.8v13.5h-6.3v-20.5h5.6l0.5,2.8c1.8-1.9,3.7-3.2,6.4-3.2c2.8,0,4.4,1.4,5.1,3.2c1.8-1.8,3.8-3.2,6.4-3.2
					c3.8,0,5.8,2.4,5.8,6.4v14.6H520.8z"/>
			</g>
			<g>
				<path d="M249,224.3c-5.6,0-9.8-4.1-9.8-10.6c0-6.6,4.2-10.7,9.8-10.7c5.7,0,9.9,4.1,9.9,10.7C258.9,220.2,254.6,224.3,249,224.3
					z M249,208.1c-2.4,0-3.7,2.1-3.7,5.5c0,3.3,1.3,5.6,3.7,5.6c2.4,0,3.8-2.2,3.8-5.5S251.4,208.1,249,208.1z"/>
				<path d="M272.2,198.9c-1.7,0-2.5,0.8-2.5,2.5v1.9h3.7l0.8,5.1h-4.5v15.3h-6.3v-15.3h-2.8v-5.1h2.8v-2.6c0-4.9,3.1-6.8,7.8-6.8
					c1,0,1.8,0.1,2.6,0.2l0.8,4.9C273.8,199,273.1,198.9,272.2,198.9z"/>
				<path d="M304.5,224.1l-2.2-6.3h-9.9l-2,6h-7l10.4-29h7.9l10,28.1L304.5,224.1z M297.4,202.2l-3.3,10h6.5L297.4,202.2z"/>
				<path d="M326.3,223.9V211c0-1.5-0.6-2.5-2.1-2.5c-1.2,0-2.3,0.7-3.5,1.8v13.5h-6.3v-20.5h5.6l0.5,2.8c1.8-1.8,3.8-3.2,6.4-3.2
					c3.8,0,5.8,2.4,5.8,6.4v14.6H326.3z"/>
				<path d="M345.4,224.1c-4.4,0-7.4-1.6-7.4-6.8v-8.8h-2.7v-5.1h2.7v-6.1l6.3-1v7.1h3.9l0.8,5.1h-4.7v7.8c0,1.7,0.8,2.4,2.5,2.4
					c0.5,0,1-0.1,1.5-0.2l0.8,5.2C348,224,347.1,224.1,345.4,224.1z"/>
				<path d="M363.9,223.9V211c0-1.5-0.6-2.5-2.1-2.5c-1.2,0-2.3,0.7-3.5,1.8v13.5H352v-29.2l6.3-1v12.3c1.7-1.7,3.6-3,6.1-3
					c3.8,0,5.8,2.4,5.8,6.4v14.6H363.9z"/>
				<path d="M380.7,212.5v11.4h-6.3v-20.5h5.5l0.7,4.1c1.3-2.3,3-4.3,6-4.5l1,6.4C384.6,209.6,382.3,210.8,380.7,212.5z"/>
				<path d="M398.9,224.3c-5.6,0-9.8-4.1-9.8-10.6c0-6.6,4.2-10.7,9.8-10.7c5.7,0,9.9,4.1,9.9,10.7
					C408.8,220.2,404.6,224.3,398.9,224.3z M399,208.1c-2.4,0-3.7,2.1-3.7,5.5c0,3.3,1.3,5.6,3.7,5.6c2.4,0,3.8-2.2,3.8-5.5
					S401.4,208.1,399,208.1z"/>
				<path d="M422.7,224.1c-1.8,0-3.1-0.3-4.3-0.7v7.3l-6.3,1v-28.3h5.6l0.4,2.7c1.4-1.6,3.3-3.1,5.9-3.1c4.2,0,7.4,3.2,7.4,10.1
					C431.4,220.8,427.3,224.1,422.7,224.1z M422,208.6c-1.4,0-2.5,0.8-3.5,2.1v7.8c0.9,0.4,1.6,0.6,2.9,0.6c2.1,0,3.7-1.6,3.7-5.6
					C425.1,210.1,423.8,208.6,422,208.6z"/>
				<path d="M443.6,224.3c-5.6,0-9.8-4.1-9.8-10.6c0-6.6,4.2-10.7,9.8-10.7c5.7,0,9.9,4.1,9.9,10.7
					C453.5,220.2,449.3,224.3,443.6,224.3z M443.7,208.1c-2.4,0-3.7,2.1-3.7,5.5c0,3.3,1.3,5.6,3.7,5.6c2.4,0,3.8-2.2,3.8-5.5
					S446.1,208.1,443.7,208.1z"/>
				<path d="M457,223.9v-29.2l6.4-1v30.2H457z"/>
				<path d="M476.5,224.3c-5.6,0-9.8-4.1-9.8-10.6c0-6.6,4.2-10.7,9.8-10.7c5.7,0,9.9,4.1,9.9,10.7
					C486.5,220.2,482.2,224.3,476.5,224.3z M476.6,208.1c-2.4,0-3.7,2.1-3.7,5.5c0,3.3,1.3,5.6,3.7,5.6c2.4,0,3.8-2.2,3.8-5.5
					S479,208.1,476.6,208.1z"/>
				<path d="M508.8,203.1l0.8,4.7c0,0-3.6,0.1-3.6,0.1c0.3,0.7,0.4,1.4,0.4,2.2c0,4.4-3.8,7.1-8.5,7.1c-0.7,0-1.3,0-1.9-0.1
					c-0.3,0.3-0.5,0.6-0.5,0.9c0,0.6,0.5,0.8,3.3,1.1l3.8,0.3c4.1,0.4,6.6,1.7,6.6,4.8c0,4.5-4.9,7.4-11.5,7.4
					c-5.8,0-9.9-1.8-9.9-4.9c0-1.8,1.1-3.1,3.3-4.4c-0.7-0.6-1.1-1.5-1.1-2.3c0-1.3,1-2.6,3.1-3.7c-2.6-1.2-3.9-3.3-3.9-5.9
					c0-4.5,3.7-7.3,8.6-7.3c2.6,0,4.7,0.8,6.3,2L508.8,203.1z M492.9,225.8c0,1.4,1.6,2.4,5.3,2.4c3.3,0,5.2-1.1,5.2-2.4
					c0-1-0.8-1.4-3-1.6l-3.1-0.3c-1.5-0.1-2.2-0.3-3.2-0.4C493.2,224.3,492.9,225.1,492.9,225.8z M497.7,206.7
					c-1.8,0-2.9,1.5-2.9,3.5c0,1.9,1.1,3.3,2.9,3.3c1.9,0,3-1.4,3-3.4C500.8,208.2,499.6,206.7,497.7,206.7z"/>
				<path d="M523.6,224.3c-1.8,5.4-4.3,7.2-8.8,7.2c-1.3,0-1.8-0.1-2.4-0.3l-0.8-5.1c0.7,0.2,1.3,0.3,2.5,0.3c1.4,0,2.7-0.5,3.3-2
					l0.3-0.6l-7.4-20l6.8-0.8l4,12.9l3.8-12.6h6.1L523.6,224.3z"/>
			</g>
		</g>
	</g>
</g>
<g id="guides" class="st3">
	<g class="st4">
		<line class="st5" x1="0.2" y1="224.8" x2="581.1" y2="224.8"/>
		<line class="st5" x1="0.2" y1="54.2" x2="581.1" y2="54.2"/>
		<line class="st5" x1="0.2" y1="0.2" x2="581.1" y2="0.2"/>
		<line class="st5" x1="0.2" y1="278.8" x2="581.1" y2="278.8"/>
		<line class="st5" x1="54.2" y1="0.2" x2="54.2" y2="278.8"/>
		<line class="st5" x1="108.2" y1="0.2" x2="108.2" y2="278.8"/>
		<line class="st5" x1="527.1" y1="0.2" x2="527.1" y2="278.8"/>
		<line class="st5" x1="581.1" y1="0.2" x2="581.1" y2="278.8"/>
		<line class="st5" x1="0.2" y1="0.2" x2="0.2" y2="278.8"/>
		<line class="st5" x1="0.2" y1="278.8" x2="581.1" y2="278.8"/>
		<line class="st5" x1="0.2" y1="0.2" x2="581.1" y2="0.2"/>
	</g>
	<g class="st4">
		<line class="st5" x1="724.6" y1="224.6" x2="1305.4" y2="224.6"/>
		<line class="st5" x1="724.6" y1="54" x2="1305.4" y2="54"/>
		<line class="st5" x1="724.6" y1="0" x2="1305.4" y2="0"/>
		<line class="st5" x1="724.6" y1="278.6" x2="1305.4" y2="278.6"/>
		<line class="st5" x1="778.6" y1="0" x2="778.6" y2="278.6"/>
		<line class="st5" x1="832.5" y1="0" x2="832.5" y2="278.6"/>
		<line class="st5" x1="1251.5" y1="0" x2="1251.5" y2="278.6"/>
		<line class="st5" x1="1305.4" y1="0" x2="1305.4" y2="278.6"/>
		<line class="st5" x1="724.6" y1="0" x2="724.6" y2="278.6"/>
		<line class="st5" x1="724.6" y1="278.6" x2="1305.4" y2="278.6"/>
		<line class="st5" x1="724.6" y1="0" x2="1305.4" y2="0"/>
	</g>
	<g class="st4">
		<line class="st5" x1="-0.4" y1="693.3" x2="580.6" y2="693.3"/>
		<line class="st5" x1="-0.4" y1="523.3" x2="580.6" y2="523.3"/>
		<line class="st5" x1="-0.4" y1="469.3" x2="580.6" y2="469.3"/>
		<line class="st5" x1="-0.4" y1="747.3" x2="580.6" y2="747.3"/>
		<line class="st5" x1="54.1" y1="468.8" x2="54.1" y2="747.8"/>
		<line class="st5" x1="108.1" y1="468.8" x2="108.1" y2="747.8"/>
		<line class="st5" x1="527.1" y1="468.8" x2="527.1" y2="747.8"/>
		<line class="st5" x1="581.1" y1="468.8" x2="581.1" y2="747.8"/>
		<line class="st5" x1="0.1" y1="468.8" x2="0.1" y2="747.8"/>
		<line class="st5" x1="-0.4" y1="747.3" x2="580.6" y2="747.3"/>
		<line class="st5" x1="-0.4" y1="469.3" x2="580.6" y2="469.3"/>
	</g>
	<g class="st4">
		<line class="st5" x1="724.8" y1="693.9" x2="1305.7" y2="693.9"/>
		<line class="st5" x1="724.8" y1="523.3" x2="1305.7" y2="523.3"/>
		<line class="st5" x1="724.8" y1="469.4" x2="1305.7" y2="469.4"/>
		<line class="st5" x1="724.8" y1="747.9" x2="1305.7" y2="747.9"/>
		<line class="st5" x1="778.8" y1="469.4" x2="778.8" y2="747.9"/>
		<line class="st5" x1="832.8" y1="469.4" x2="832.8" y2="747.9"/>
		<line class="st5" x1="1251.7" y1="469.4" x2="1251.7" y2="747.9"/>
		<line class="st5" x1="1305.7" y1="469.4" x2="1305.7" y2="747.9"/>
		<line class="st5" x1="724.8" y1="469.4" x2="724.8" y2="747.9"/>
		<line class="st5" x1="724.8" y1="747.9" x2="1305.7" y2="747.9"/>
		<line class="st5" x1="724.8" y1="469.4" x2="1305.7" y2="469.4"/>
	</g>
	<g class="st4">
		<line class="st6" x1="1844.8" y1="498.9" x2="1844.8" y2="559.9"/>
		<line class="st6" x1="1749.4" y1="498.9" x2="1749.4" y2="559.9"/>
	</g>
	<g class="st4">
		<line class="st6" x1="1860.9" y1="546.7" x2="1729" y2="546.7"/>
		<line class="st6" x1="1860.9" y1="512.1" x2="1729" y2="512.1"/>
	</g>
</g>
</svg>
