<svg width="228" height="89" viewBox="0 0 228 89" xmlns="http://www.w3.org/2000/svg" xmlns:xlink="http://www.w3.org/1999/xlink"><title>Page 1</title><defs><path id="a" d="M9.55 12.957V.228H.284v12.729H9.55z"/></defs><g fill="none" fill-rule="evenodd"><path d="M0 0v85h28.166V41.726L42 32.464l-13.834-9.26V0H0zm1.565 1.545H26.6v22.478l12.61 8.44-12.61 8.445v42.547H1.565V1.545zM55.834 0v23.203L42 32.463l13.834 9.263V85H84V0H55.834zM57.4 40.908l-12.61-8.444 12.61-8.441V1.545h25.035v81.91H57.4V40.908zM99.665 34.202h-1.04l-.812 5.912c.48.147 1.04.208 1.478.208 1.975 0 3.329-1.223 3.329-3.38 0-1.64-1.209-2.74-2.955-2.74m-.311 6.888c-.563 0-1.102-.062-1.665-.146l-.54 3.984c-.043.29.104.456.415.497l1.498.23.062.726h-5.72l.063-.727 1.144-.23c.313-.061.499-.227.54-.496l1.374-10.062c.062-.248-.02-.416-.416-.499l-1.062-.227-.062-.725h5.076c2.85 0 4.658 1.472 4.658 3.567 0 2.718-2.642 4.108-5.365 4.108M111.539 46.69c-.436 0-1.52-.31-1.52-.664 0-.517.666-2.57 1.062-3.857.333-1.163.811-2.49.811-3.03 0-.434-.456-.891-.958-.891-.644 0-1.768 1.783-3.452 5.332l-.56 2.903-1.706-.103.748-3.05 1.748-8.837c.04-.27 0-.414-.125-.478l-1.312-.58.085-.52 3.472-.996-1.165 4.857-1.35 5.808h.186c1.311-2.802 2.12-4.336 2.871-5.083.582-.582 1.062-.747 1.621-.747.729 0 1.457.622 1.457 1.431 0 .808-.375 2.303-.853 3.817a174.823 174.823 0 0 1-.977 3.298l.583.188 1.643-1.244.353.373c-.499.974-1.83 2.074-2.662 2.074M120.416 37.44c-1.395 0-2.476 2.508-2.747 3.629a9.299 9.299 0 0 0-.27 2.136c0 1.268.478 2.802 1.56 2.802 1.498 0 2.475-2.615 2.747-3.777.145-.684.248-1.493.248-2.178 0-1.266-.436-2.613-1.538-2.613m-1.457 9.252c-2.162 0-3.16-1.68-3.16-4.066 0-2.758 2.058-5.87 4.617-5.87 2.163 0 3.16 1.68 3.16 4.066 0 2.758-2.058 5.87-4.617 5.87M130.542 38.683c0-.518-1.248-.892-1.664-.892-.395 0-.583.103-.728.25-.5.497-1.185 2.011-1.58 4.086h.04c3.266-1.723 3.932-2.407 3.932-3.444m-2.183 6.764c.602 0 1.309-.395 2.475-1.224l.269.372c-1.102 1.309-1.975 2.096-3.369 2.096-1.663 0-2.828-1.411-2.828-3.235 0-3.239 2.308-6.702 4.887-6.702 1.352 0 2.226.87 2.226 1.95 0 1.41-1.437 2.032-5.471 4.025v.497c0 1.41.812 2.22 1.811 2.22M138.132 38.165c-.686 0-1.435.997-3.369 4.397l-.458 2.033c.707.705 1.809 1.35 2.454 1.35.186 0 .416-.126.644-.353.854-.85 1.686-3.549 1.686-5.436 0-1.078-.291-1.99-.957-1.99m.603 7.094c-.831.83-2.038 1.473-3.14 1.473-1.062 0-2.767-1.038-2.706-1.308l2.102-10.931c.043-.27 0-.415-.125-.48l-1.311-.58.084-.518 3.474-.997-1.145 4.835-1.081 4.502h.167c1.58-2.988 2.557-4.502 3.806-4.502 1.062 0 1.871 1.307 1.871 2.988 0 2.239-.728 4.252-1.996 5.518M147.717 38.683c0-.518-1.247-.892-1.663-.892-.396 0-.583.103-.729.25-.5.497-1.184 2.011-1.58 4.086h.04c3.266-1.723 3.932-2.407 3.932-3.444m-2.184 6.764c.604 0 1.31-.395 2.476-1.224l.27.372c-1.103 1.309-1.975 2.096-3.37 2.096-1.663 0-2.827-1.411-2.827-3.235 0-3.239 2.307-6.702 4.886-6.702 1.353 0 2.225.87 2.225 1.95 0 1.41-1.435 2.032-5.47 4.025v.497c0 1.41.811 2.22 1.81 2.22M159.07 35.157L156.7 40.84h3.328l-.853-5.684h-.104zm.085 10.496l1.08-.186c.436-.082.458-.394.395-.726l-.458-3.03h-3.826l-.687 1.765c-.498 1.265-.436 1.804.146 1.95l.936.227.063.727h-4.638l.062-.727.77-.248c.643-.187.893-.457 1.287-1.349l4.307-9.729v-.686l2.101-.519 2.038 11.619c.085.394.166.581.687.684l1.081.228.063.727h-5.47l.063-.727zM167.53 46.69a1.409 1.409 0 0 1-1.412-1.39c0-.724.601-1.347 1.413-1.347.813 0 1.374.623 1.374 1.347 0 .726-.561 1.39-1.374 1.39M101.347 65.908v-5.275h-4.48v5.275h-3.206V53.006h3.206v4.822h4.48v-4.822h3.206v12.902zM110.898 58.39c-.788 0-1.351.693-1.445 2.094h2.887c-.093-1.383-.58-2.094-1.442-2.094m4.086 3.647h-5.512c.152 1.44 1.013 2 2.25 2 1.012 0 2.007-.374 3.018-.952l.283 1.982c-.994.634-2.214 1.027-3.656 1.027-2.758 0-4.726-1.458-4.726-4.73 0-2.994 1.837-4.806 4.332-4.806 2.812 0 4.067 2.094 4.067 4.75 0 .28-.017.58-.056.73M121.74 61.439c-1.931.299-2.456.935-2.456 1.738 0 .58.354.897.88.897.544 0 1.069-.242 1.575-.691v-1.944zm.317 4.468l-.186-1.14c-.75.785-1.632 1.327-2.89 1.327-1.46 0-2.49-.877-2.49-2.544 0-2.149 1.648-3.16 5.248-3.477v-.167c0-.804-.45-1.162-1.388-1.162-1.031 0-1.987.262-2.962.693l-.338-2.132c1.05-.43 2.233-.71 3.732-.71 2.53 0 3.787.841 3.787 3.18v6.132h-2.513zM129.656 60.822v5.086h-2.83v-9.163h2.474l.3 1.815c.563-1.048 1.33-1.909 2.68-2l.47 2.876c-1.368.095-2.401.638-3.094 1.386M137.591 66.057c-1.463 0-2.832-.412-3.787-.917l.337-2.15c1.087.673 2.419 1.085 3.47 1.085.787 0 1.162-.262 1.162-.692 0-.468-.262-.672-1.557-.992-2.305-.597-3.28-1.214-3.28-2.934 0-1.701 1.275-2.844 3.524-2.844 1.237 0 2.437.245 3.394.673l-.358 2.15c-.993-.542-2.137-.859-3.017-.859-.675 0-.974.244-.974.6 0 .372.261.58 1.555.935 2.436.651 3.299 1.27 3.299 2.973 0 1.924-1.33 2.972-3.768 2.972M147.026 66.039c-1.968 0-3.338-.71-3.338-3.049v-3.944h-1.218v-2.302h1.218v-2.73l2.812-.43v3.16h1.745l.356 2.302h-2.1v3.497c0 .745.357 1.083 1.125 1.083.244 0 .469-.037.674-.093l.358 2.318c-.45.131-.882.188-1.632.188M166.325 65.908l-.563-8.584-2.457 8.602h-3l-2.456-8.602-.561 8.584h-2.794l.937-12.902h4.144l2.512 8.882 2.531-8.882h4.03l.938 12.902zM177.376 65.908l-.207-1.254c-.844.825-1.724 1.44-2.868 1.44-1.707 0-2.606-1.047-2.606-2.823v-6.527h2.83v5.741c0 .655.28 1.123.958 1.123.544 0 1.049-.32 1.555-.823v-6.04h2.831v9.163h-2.493zM185.613 66.057c-1.463 0-2.833-.412-3.788-.917l.338-2.15c1.086.673 2.418 1.085 3.469 1.085.788 0 1.163-.262 1.163-.692 0-.468-.263-.672-1.557-.992-2.306-.597-3.281-1.214-3.281-2.934 0-1.701 1.275-2.844 3.525-2.844 1.236 0 2.437.245 3.393.673l-.358 2.15c-.99-.542-2.136-.859-3.017-.859-.675 0-.975.244-.975.6 0 .372.263.58 1.557.935 2.435.651 3.298 1.27 3.298 2.973 0 1.924-1.33 2.972-3.767 2.972M195.086 58.39c-.788 0-1.351.693-1.445 2.094h2.887c-.093-1.383-.58-2.094-1.442-2.094m4.086 3.647h-5.512c.151 1.44 1.013 2 2.25 2 1.012 0 2.006-.374 3.018-.952l.283 1.982c-.994.634-2.214 1.027-3.657 1.027-2.757 0-4.725-1.458-4.725-4.73 0-2.994 1.837-4.806 4.332-4.806 2.812 0 4.067 2.094 4.067 4.75 0 .28-.017.58-.056.73M206.752 65.908l-.207-1.254c-.844.825-1.724 1.44-2.868 1.44-1.707 0-2.606-1.047-2.606-2.823v-6.527h2.83v5.741c0 .655.28 1.123.958 1.123.544 0 1.049-.32 1.555-.823v-6.04h2.831v9.163h-2.493zM222.037 65.908v-5.741c0-.655-.244-1.104-.9-1.104-.507 0-.994.318-1.5.804v6.04h-2.832v-5.74c0-.655-.244-1.104-.899-1.104-.525 0-.994.318-1.5.804v6.04h-2.83v-9.163h2.492l.206 1.254c.826-.842 1.67-1.44 2.85-1.44 1.257 0 1.95.615 2.287 1.44.827-.825 1.726-1.44 2.869-1.44 1.707 0 2.605 1.067 2.605 2.842v6.508h-2.848zM97.41 78.21c-1.086 0-1.668.953-1.668 2.45 0 1.478.6 2.487 1.668 2.487 1.087 0 1.687-.99 1.687-2.467 0-1.478-.6-2.47-1.687-2.47m-.018 7.22c-2.531 0-4.387-1.814-4.387-4.75 0-2.937 1.874-4.787 4.405-4.787 2.55 0 4.424 1.83 4.424 4.767 0 2.936-1.893 4.77-4.442 4.77M108.214 74.096c-.768 0-1.126.374-1.126 1.123v.859h1.67l.336 2.301h-2.006v6.862h-2.83v-6.862h-1.275v-2.301h1.276v-1.14c0-2.206 1.368-3.028 3.486-3.028.45 0 .825.055 1.144.092l.336 2.17a7.185 7.185 0 0 0-1.011-.076M121.127 75.51l-1.464 4.499h2.93l-1.466-4.5zm3.216 9.823l-.979-2.812h-4.455l-.902 2.681h-3.139l4.663-12.992h3.532l4.511 12.598-3.231.525zM134.273 85.202v-5.755c0-.656-.263-1.105-.941-1.105-.544 0-1.051.318-1.56.823v6.037h-2.838v-9.186h2.501l.205 1.256c.829-.807 1.712-1.444 2.876-1.444 1.71 0 2.614 1.07 2.614 2.85v6.524h-2.857zM143.018 85.333c-1.974 0-3.345-.712-3.345-3.056v-3.955h-1.222v-2.306h1.222v-2.737l2.82-.432v3.169h1.748l.358 2.306h-2.106v3.506c0 .749.357 1.087 1.127 1.087.244 0 .47-.038.677-.094l.357 2.325c-.45.131-.884.187-1.636.187M151.462 85.202v-5.755c0-.656-.263-1.105-.941-1.105-.544 0-1.05.318-1.56.823v6.037h-2.838V72.116l2.838-.45v5.494c.772-.752 1.618-1.332 2.745-1.332 1.71 0 2.613 1.07 2.613 2.85v6.524h-2.857zM159.193 80.103v5.1h-2.838v-9.187h2.48l.303 1.818c.563-1.049 1.333-1.913 2.687-2.005l.469 2.886c-1.372.094-2.406.638-3.101 1.388M167.392 78.152c-1.09 0-1.673.956-1.673 2.456 0 1.481.6 2.495 1.673 2.495 1.09 0 1.691-.995 1.691-2.475s-.602-2.476-1.691-2.476m-.019 7.238c-2.537 0-4.397-1.818-4.397-4.762 0-2.943 1.879-4.799 4.416-4.799 2.557 0 4.436 1.837 4.436 4.78 0 2.943-1.9 4.781-4.455 4.781M177.886 78.36c-.621 0-1.11.374-1.58.938v3.486c.395.187.714.281 1.297.281.96 0 1.674-.731 1.674-2.513 0-1.536-.583-2.193-1.391-2.193m.358 6.937c-.829 0-1.412-.15-1.939-.32v3.283l-2.837.43V76.016h2.5l.189 1.218c.639-.713 1.464-1.405 2.65-1.405 1.899 0 3.307 1.425 3.307 4.536 0 3.487-1.843 4.931-3.87 4.931M187.796 78.152c-1.09 0-1.673.956-1.673 2.456 0 1.481.6 2.495 1.673 2.495 1.09 0 1.691-.995 1.691-2.475s-.601-2.476-1.69-2.476m-.02 7.238c-2.537 0-4.397-1.818-4.397-4.762 0-2.943 1.879-4.799 4.416-4.799 2.557 0 4.436 1.837 4.436 4.78 0 2.943-1.899 4.781-4.455 4.781M193.93 85.202V72.116l2.857-.45v13.536zM202.897 78.152c-1.09 0-1.673.956-1.673 2.456 0 1.481.6 2.495 1.673 2.495 1.09 0 1.691-.995 1.691-2.475s-.601-2.476-1.69-2.476m-.02 7.238c-2.537 0-4.397-1.818-4.397-4.762 0-2.943 1.879-4.799 4.416-4.799 2.557 0 4.436 1.837 4.436 4.78 0 2.943-1.899 4.781-4.455 4.781M212.565 77.534c-.827 0-1.316.675-1.316 1.556 0 .862.489 1.463 1.316 1.463.864 0 1.352-.638 1.352-1.519 0-.862-.507-1.5-1.352-1.5zm-2.2 8.53c0 .638.715 1.087 2.369 1.087 1.485 0 2.332-.488 2.332-1.087 0-.432-.34-.619-1.337-.73l-1.372-.113c-.675-.056-.996-.114-1.448-.187-.375.374-.544.712-.544 1.03zm7.182-10.142l.356 2.099-1.616.039c.112.318.169.637.169.974 0 1.986-1.73 3.168-3.816 3.168-.302 0-.582-.018-.865-.056-.151.151-.225.282-.225.413 0 .262.225.337 1.465.487l1.693.112c1.841.189 2.951.77 2.951 2.156 0 2.005-2.2 3.3-5.15 3.3-2.594 0-4.437-.786-4.437-2.194 0-.805.488-1.405 1.504-1.968-.319-.28-.507-.655-.507-1.012 0-.581.47-1.143 1.373-1.65-1.147-.525-1.768-1.482-1.768-2.662 0-2.007 1.654-3.262 3.872-3.262 1.165 0 2.124.337 2.819.88l2.182-.824z" fill="#FFF"/><g transform="translate(218.057 75.656)"><mask id="b" fill="#fff"><use xlink:href="#a"/></mask><path d="M6.28 9.733c-.827 2.4-1.955 3.224-3.965 3.224-.565 0-.81-.056-1.073-.112l-.356-2.269c.3.096.583.152 1.128.152.638 0 1.202-.245 1.503-.883l.112-.28L.284.585 3.327.228l1.787 5.793L6.806.359H9.55L6.28 9.733z" fill="#FFF" mask="url(#b)"/></g></g></svg>